<svg width="2709" height="1610" xmlns="http://www.w3.org/2000/svg" xmlns:xlink="http://www.w3.org/1999/xlink" overflow="hidden"><defs><clipPath id="clip0"><rect x="30" y="1380" width="2709" height="1610"/></clipPath></defs><g clip-path="url(#clip0)" transform="translate(-30 -1380)"><path d="M1758 2353.5 1914.75 2353.5" stroke="#189CCF" stroke-width="5.72917" stroke-linejoin="round" stroke-miterlimit="10" fill="none" fill-rule="evenodd"/><path d="M817 2185 895.373 2185 895.373 2353.5 973.747 2353.5" stroke="#1489B6" stroke-width="5.72917" stroke-linejoin="round" stroke-miterlimit="10" fill="none" fill-rule="evenodd"/><path d="M1758 2016.5 1914.75 2016.5" stroke="#189CCF" stroke-width="5.72917" stroke-linejoin="round" stroke-miterlimit="10" fill="none" fill-rule="evenodd"/><path d="M817 2184.5 895.373 2184.5 895.373 2016 973.747 2016" stroke="#1489B6" stroke-width="5.72917" stroke-linejoin="round" stroke-miterlimit="10" fill="none" fill-rule="evenodd"/><rect x="33" y="2065" width="784" height="239" stroke="#FFFFFF" stroke-width="5.72917" stroke-linejoin="round" stroke-miterlimit="10" fill="#1CADE4"/><text fill="#FFFFFF" font-family="STFangsong,STFangsong_MSFontService,sans-serif" font-weight="700" font-size="64" transform="matrix(1 0 0 1 264.592 2200)">挑战杯赛事</text><rect x="974" y="1897" width="784" height="239" stroke="#FFFFFF" stroke-width="5.72917" stroke-linejoin="round" stroke-miterlimit="10" fill="#1CADE4"/><text fill="#FFFFFF" font-family="STFangsong,STFangsong_MSFontService,sans-serif" font-weight="700" font-size="64" transform="matrix(1 0 0 1 1172.96 2032)">“大挑战杯”</text><rect x="1914" y="1897" width="784" height="239" stroke="#FFFFFF" stroke-width="5.72917" stroke-linejoin="round" stroke-miterlimit="10" fill="#1CADE4"/><text fill="#FFFFFF" font-family="STFangsong,STFangsong_MSFontService,sans-serif" font-weight="700" font-size="64" transform="matrix(1 0 0 1 1920.73 1990)">“挑战杯”全国大学生课外<tspan font-size="64" x="128.471" y="84">学术科技作品竞赛</tspan></text><rect x="974" y="2234" width="784" height="239" stroke="#FFFFFF" stroke-width="5.72917" stroke-linejoin="round" stroke-miterlimit="10" fill="#1CADE4"/><text fill="#FFFFFF" font-family="STFangsong,STFangsong_MSFontService,sans-serif" font-weight="700" font-size="64" transform="matrix(1 0 0 1 1172.96 2369)">“小挑战杯”</text><rect x="1914" y="2234" width="784" height="239" stroke="#FFFFFF" stroke-width="5.72917" stroke-linejoin="round" stroke-miterlimit="10" fill="#1CADE4"/><text fill="#FFFFFF" font-family="STFangsong,STFangsong_MSFontService,sans-serif" font-weight="700" font-size="64" transform="matrix(1 0 0 1 1920.73 2327)">“创青春”全国大学生创业<tspan font-size="64" x="321.177" y="84">竞赛</tspan></text></g></svg>