<svg width="2724" height="668" xmlns="http://www.w3.org/2000/svg" xmlns:xlink="http://www.w3.org/1999/xlink" overflow="hidden"><defs><clipPath id="clip0"><rect x="12" y="1451" width="2724" height="668"/></clipPath></defs><g clip-path="url(#clip0)" transform="translate(-12 -1451)"><path d="M1760 1955.5 1918.61 1955.5" stroke="#189CCF" stroke-width="5.72917" stroke-linejoin="round" stroke-miterlimit="10" fill="none" fill-rule="evenodd"/><path d="M808 1785 887.303 1785 887.303 1955.5 966.606 1955.5" stroke="#1489B6" stroke-width="5.72917" stroke-linejoin="round" stroke-miterlimit="10" fill="none" fill-rule="evenodd"/><path d="M1760 1614.5 1918.61 1614.5" stroke="#189CCF" stroke-width="5.72917" stroke-linejoin="round" stroke-miterlimit="10" fill="none" fill-rule="evenodd"/><path d="M808 1785.5 887.303 1785.5 887.303 1615 966.606 1615" stroke="#1489B6" stroke-width="5.72917" stroke-linejoin="round" stroke-miterlimit="10" fill="none" fill-rule="evenodd"/><rect x="15.0001" y="1664" width="793" height="242" stroke="#FFFFFF" stroke-width="5.72917" stroke-linejoin="round" stroke-miterlimit="10" fill="#1CADE4"/><text fill="#FFFFFF" font-family="STFangsong,STFangsong_MSFontService,sans-serif" font-weight="700" font-size="73" transform="matrix(1 0 0 1 228.122 1803)">挑战杯赛事</text><rect x="967" y="1494" width="793" height="242" stroke="#FFFFFF" stroke-width="5.72917" stroke-linejoin="round" stroke-miterlimit="10" fill="#1CADE4"/><text fill="#FFFFFF" font-family="STFangsong,STFangsong_MSFontService,sans-serif" font-weight="400" font-size="73" transform="matrix(1 0 0 1 1143.09 1632)">“<tspan font-weight="700" font-size="73" x="73.3334" y="0">大挑战杯”</tspan></text><rect x="1918" y="1494" width="793" height="242" stroke="#FFFFFF" stroke-width="5.72917" stroke-linejoin="round" stroke-miterlimit="10" fill="#1CADE4"/><text fill="#FFFFFF" font-family="STFangsong,STFangsong_MSFontService,sans-serif" font-weight="700" font-size="73" transform="matrix(1 0 0 1 1947.88 1584)">“挑战杯”<tspan font-size="73" x="367.01" y="0">全国大学生</tspan><tspan font-size="73" x="0" y="96">课外学术科技作品</tspan><tspan font-size="73" x="587.217" y="96">竞赛</tspan></text><rect x="967" y="1835" width="793" height="242" stroke="#FFFFFF" stroke-width="5.72917" stroke-linejoin="round" stroke-miterlimit="10" fill="#1CADE4"/><text fill="#FFFFFF" font-family="STFangsong,STFangsong_MSFontService,sans-serif" font-weight="700" font-size="73" transform="matrix(1 0 0 1 1143.05 1973)">“小挑战杯”</text><rect x="1918" y="1835" width="793" height="242" stroke="#FFFFFF" stroke-width="5.72917" stroke-linejoin="round" stroke-miterlimit="10" fill="#1CADE4"/><text fill="#FFFFFF" font-family="STFangsong,STFangsong_MSFontService,sans-serif" font-weight="700" font-size="73" transform="matrix(1 0 0 1 1947.88 1925)">“<tspan font-size="73" x="73.4021" y="0">创青春”全国大学生</tspan><tspan font-size="73" x="220.206" y="96">创业竞赛</tspan></text></g></svg>